# xmcd
#
# Track frame offsets:
#	150
#	12844
#	34604
#	45303
#	63318
#	78094
#	95839
#	116046
#	133830
#	151339
#
# Disc length: 2264 seconds
#
# Revision: 0
# Processed by: cddbd v1.5.2PL0 Copyright (c) Steve Scherf et al.
# Submitted via: dBpowerAMP V4.0
#
DISCID=7608d60a
DTITLE=Woodwork Roadshow - In Bricks In Bones
DYEAR=1900
DGENRE=Bluegrass-Rock
TTITLE0=Calm Before the Storm
TTITLE1=Say It All
TTITLE2=Aftermath
TTITLE3=If At Last
TTITLE4=Nothing New
TTITLE5=No Remorse for Tess
TTITLE6=Bound to Fly
TTITLE7=Coast to Coast
TTITLE8=Better View
TTITLE9=In Dreams
EXTD=
EXTT0=
EXTT1=
EXTT2=
EXTT3=
EXTT4=
EXTT5=
EXTT6=
EXTT7=
EXTT8=
EXTT9=
PLAYORDER=
